<svg width="872" height="1762" xmlns="http://www.w3.org/2000/svg" xmlns:xlink="http://www.w3.org/1999/xlink"><defs><path d="M0 312v130h9.003A3.001 3.001 0 0 0 12 439.01V314.99A2.994 2.994 0 0 0 9.003 312H0z" id="a"/><path d="M0 150v130h9.003A3.001 3.001 0 0 0 12 277.01V152.99A2.994 2.994 0 0 0 9.003 150H0z" id="b"/><path d="M0 0v70h9.003A2.996 2.996 0 0 0 12 66.992V3.008A3.002 3.002 0 0 0 9.003 0H0z" id="c"/><path d="M853 373v130h16c1.657 0 3-1.35 3-2.99V375.99a2.99 2.99 0 0 0-3-2.99h-16z" id="d"/><rect id="e" x="8" width="856" height="1762" rx="130"/></defs><g fill="none" fill-rule="evenodd"><g transform="matrix(-1 0 0 1 12 223)"><use fill="#F2F2F2" xlink:href="#a"/><path stroke="#979797" stroke-width="2" d="M1 313v128h8.003A2.001 2.001 0 0 0 11 439.01V314.99c0-1.098-.894-1.99-1.997-1.99H1z"/></g><g transform="matrix(-1 0 0 1 12 223)"><use fill="#F2F2F2" xlink:href="#b"/><path stroke="#979797" stroke-width="2" d="M1 151v128h8.003A2.001 2.001 0 0 0 11 277.01V152.99c0-1.098-.894-1.99-1.997-1.99H1z"/></g><g transform="matrix(-1 0 0 1 12 223)"><use fill="#F2F2F2" xlink:href="#c"/><path stroke="#979797" stroke-width="2" d="M1 1v68h8.003A1.996 1.996 0 0 0 11 66.992V3.008C11 1.898 10.105 1 9.003 1H1z"/></g><use fill="#F2F2F2" xlink:href="#d"/><path stroke="#979797" stroke-width="2" d="M854 374v128h15c1.1 0 2-.899 2-1.99V375.99a1.99 1.99 0 0 0-2-1.99h-15z"/><use fill="#F2F2F2" xlink:href="#e"/><rect stroke="#979797" stroke-width="2" x="9" y="1" width="854" height="1760" rx="130"/><g transform="translate(285 53)"><rect fill="#979797" opacity=".606" x="84" y="52" width="134" height="12" rx="6"/><circle fill-opacity=".3" fill="#979797" cx="14" cy="58" r="14"/><circle fill-opacity=".3" fill="#CDCDCF" cx="151" cy="9" r="9"/></g><path d="M436 1714c-37.555 0-68-30.445-68-68s30.445-68 68-68 68 30.445 68 68-30.445 68-68 68zm0-8c33.137 0 60-26.863 60-60s-26.863-60-60-60-60 26.863-60 60 26.863 60 60 60z" fill="#D8D8D8"/></g></svg>