<svg width="375" height="44" xmlns="http://www.w3.org/2000/svg"><g fill="none" fill-rule="evenodd"><g transform="translate(336 17)"><rect stroke="#FFF" opacity=".35" x=".5" y=".833" width="21" height="10.333" rx="2.667"/><path d="M23 4v4a2.17 2.17 0 0 0 0-4" fill="#FFF" fill-rule="nonzero" opacity=".4"/><rect fill="#FFF" fill-rule="nonzero" x="2" y="2.333" width="18" height="7.333" rx="1.333"/></g><path d="M323.33 19.608a8.64 8.64 0 0 1 5.953 2.378.308.308 0 0 0 .434-.003l1.156-1.167a.322.322 0 0 0-.003-.456 10.897 10.897 0 0 0-15.08 0 .322.322 0 0 0-.003.456l1.156 1.167c.12.12.313.121.434.003a8.641 8.641 0 0 1 5.953-2.378zm0 3.796c1.218 0 2.392.452 3.294 1.27a.31.31 0 0 0 .434-.006l1.154-1.167a.322.322 0 0 0-.004-.459 7.16 7.16 0 0 0-9.753 0 .322.322 0 0 0-.004.459l1.154 1.167a.31.31 0 0 0 .434.005 4.907 4.907 0 0 1 3.291-1.27zm2.22 2.784a.314.314 0 0 0-.01-.457 3.422 3.422 0 0 0-4.42 0 .314.314 0 0 0-.009.457l1.998 2.016a.312.312 0 0 0 .443 0l1.997-2.016zm-30.883-1.855h1a1 1 0 0 1 1 1v2a1 1 0 0 1-1 1h-1a1 1 0 0 1-1-1v-2a1 1 0 0 1 1-1zm4.666-2h1a1 1 0 0 1 1 1v4a1 1 0 0 1-1 1h-1a1 1 0 0 1-1-1v-4a1 1 0 0 1 1-1zM304 20h1a1 1 0 0 1 1 1v6.333a1 1 0 0 1-1 1h-1a1 1 0 0 1-1-1V21a1 1 0 0 1 1-1zm4.667-2.333h1a1 1 0 0 1 1 1v8.666a1 1 0 0 1-1 1h-1a1 1 0 0 1-1-1v-8.666a1 1 0 0 1 1-1z" fill="#FFF" fill-rule="nonzero"/><text transform="translate(21 9)" font-size="14" font-family=".AppleSystemUIFont" letter-spacing="-.28" fill="#FFF"><tspan x="13.413" y="21">9:4</tspan> <tspan x="34.209" y="21">1</tspan></text></g></svg>