<svg width="776" height="1470" xmlns="http://www.w3.org/2000/svg" xmlns:xlink="http://www.w3.org/1999/xlink"><defs><rect id="a" x="754.596" y="181" width="20" height="186" rx="4.066"/><rect id="b" x="754.596" y="425" width="20" height="80" rx="4.066"/><path d="M10.596 41.992C10.596 18.801 29.396 0 52.605 0h667.983c23.2 0 42.008 18.804 42.008 41.992v1386.016c0 23.191-18.8 41.992-42.008 41.992H52.605c-23.201 0-42.009-18.804-42.009-41.992V41.992zm16 6.026V1344.93c0 17.674 14.326 32.009 31.998 32.009h656.004c17.677 0 31.998-14.33 31.998-32.009V48.02c0-17.675-14.326-32.01-31.998-32.01H58.594c-17.676 0-31.998 14.331-31.998 32.01z" id="c"/><circle id="d" cx="11" cy="11" r="11"/></defs><g fill="none" fill-rule="evenodd"><g transform="translate(.404)"><use fill="#F2F2F2" xlink:href="#a"/><rect stroke="#979797" stroke-width="2" x="755.596" y="182" width="18" height="184" rx="4.066"/></g><g transform="translate(.404)"><use fill="#F2F2F2" xlink:href="#b"/><rect stroke="#979797" stroke-width="2" x="755.596" y="426" width="18" height="78" rx="4.066"/></g><g transform="translate(.404)"><use fill="#F2F2F2" xlink:href="#c"/><path stroke="#979797" stroke-width="2" d="M11.596 41.992v1386.016c0 22.637 18.361 40.992 41.009 40.992h667.983c22.653 0 41.008-18.35 41.008-40.992V41.992C761.596 19.355 743.236 1 720.588 1H52.605C29.95 1 11.596 19.35 11.596 41.992zm14 6.026c0-18.231 14.771-33.008 32.998-33.008h656.004c18.223 0 32.998 14.78 32.998 33.008V1344.93c0 18.232-14.77 33.009-32.998 33.009H58.594c-18.223 0-32.998-14.781-32.998-33.009V48.02z"/></g><use fill="#979797" xlink:href="#d" transform="translate(654.404 1410)"/></g></svg>