<svg width="953" height="1946" xmlns="http://www.w3.org/2000/svg" xmlns:xlink="http://www.w3.org/1999/xlink"><defs><path d="M0 344.581v143.576h9.942a3.318 3.318 0 0 0 3.31-3.32V347.9a3.315 3.315 0 0 0-3.31-3.32H0z" id="a"/><path d="M0 165.664V309.24h9.942a3.318 3.318 0 0 0 3.31-3.32V168.983a3.315 3.315 0 0 0-3.31-3.32H0z" id="b"/><path d="M0 0v77.31h9.942a3.308 3.308 0 0 0 3.31-3.322V3.322A3.316 3.316 0 0 0 9.942 0H0z" id="c"/><path d="M933.017 411.951v143.576h17.67a3.32 3.32 0 0 0 3.313-3.32V415.271a3.312 3.312 0 0 0-3.313-3.32h-17.67z" id="d"/><rect id="e" x="12" width="929" height="1946" rx="143.567"/></defs><g fill="none" fill-rule="evenodd"><g transform="matrix(-1 0 0 1 13.252 246.287)"><use fill="#F2F2F2" xlink:href="#a"/><path stroke="#979797" stroke-width="2" d="M1 345.581v141.576h8.942a2.318 2.318 0 0 0 2.31-2.32V347.9a2.315 2.315 0 0 0-2.31-2.32H1z"/></g><g transform="matrix(-1 0 0 1 13.252 246.287)"><use fill="#F2F2F2" xlink:href="#b"/><path stroke="#979797" stroke-width="2" d="M1 166.664V308.24h8.942a2.318 2.318 0 0 0 2.31-2.32V168.983a2.315 2.315 0 0 0-2.31-2.32H1z"/></g><g transform="matrix(-1 0 0 1 13.252 246.287)"><use fill="#F2F2F2" xlink:href="#c"/><path stroke="#979797" stroke-width="2" d="M1 1v75.31h8.942c1.28 0 2.31-1.032 2.31-2.322V3.322A2.316 2.316 0 0 0 9.942 1H1z"/></g><g transform="translate(-1)"><use fill="#F2F2F2" xlink:href="#d"/><path stroke="#979797" stroke-width="2" d="M934.017 412.951v141.576h16.67a2.32 2.32 0 0 0 2.313-2.32V415.271a2.312 2.312 0 0 0-2.313-2.32h-16.67z"/></g><g transform="translate(-1)"><use fill="#F2F2F2" xlink:href="#e"/><rect stroke="#979797" stroke-width="2" x="13" y="1" width="927" height="1944" rx="143.567"/></g><g transform="translate(308.742 58.535)"><rect fill="#979797" opacity=".606" x="92.766" y="57.43" width="147.984" height="13.253" rx="6.626"/><ellipse fill-opacity=".3" fill="#979797" cx="15.461" cy="64.057" rx="15.461" ry="15.462"/><ellipse fill-opacity=".3" fill="#CDCDCF" cx="166.758" cy="9.94" rx="9.939" ry="9.94"/></g><path d="M476 1893c-41.421 0-75-33.579-75-75s33.579-75 75-75 75 33.579 75 75-33.579 75-75 75zm0-8.824c36.548 0 66.176-29.628 66.176-66.176s-29.628-66.176-66.176-66.176-66.176 29.628-66.176 66.176 29.628 66.176 66.176 66.176z" fill="#D8D8D8"/></g></svg>