<svg width="862" height="1724" xmlns="http://www.w3.org/2000/svg" xmlns:xlink="http://www.w3.org/1999/xlink"><defs><path d="M850 399v196h9.08a2.918 2.918 0 0 0 2.92-2.923V401.923a2.921 2.921 0 0 0-2.92-2.923H850z" id="a"/><path d="M0 513v126h9.08a2.92 2.92 0 0 0 2.92-2.914V515.914A2.917 2.917 0 0 0 9.08 513H0z" id="b"/><path d="M0 356v126h9.08a2.92 2.92 0 0 0 2.92-2.914V358.914A2.917 2.917 0 0 0 9.08 356H0z" id="c"/><path d="M0 235v62h9.08c1.613 0 2.92-1.31 2.92-2.907v-56.186A2.914 2.914 0 0 0 9.08 235H0z" id="d"/><path d="M6 127.996C6 57.306 63.298 0 134.001 0H728c70.692 0 128 57.3 128 127.996v1468.008c0 70.69-57.298 127.996-128.001 127.996H134c-70.692 0-128-57.3-128-127.996V127.996zm49.999 2.207v1463.792c0 44.197 35.815 80.005 79.996 80.005h590.007c44.17 0 79.997-35.82 79.997-80.005V130.203c0-44.198-35.818-80.056-80.001-80.118 0 0-57.978-.085-68-.085-10.02 0-20 4.035-20 20.195 0 27.574-19.838 40.995-49 40.995h-320c-25 0-46-16.998-46-36.995 0-20.832-9.565-24.195-23-24.195-13.434 0-63.998.08-63.998.08-44.176.064-80.001 35.937-80.001 80.123z" id="e"/></defs><g fill="none" fill-rule="evenodd"><use fill="#F2F2F2" xlink:href="#a"/><path stroke="#979797" stroke-width="2" d="M851 400v194h8.08c1.062 0 1.92-.858 1.92-1.923V401.923c0-1.062-.86-1.923-1.92-1.923H851z"/><g transform="matrix(-1 0 0 1 12 0)"><use fill="#F2F2F2" xlink:href="#b"/><path stroke="#979797" stroke-width="2" d="M1 514v124h8.08c1.06 0 1.92-.86 1.92-1.914V515.914A1.917 1.917 0 0 0 9.08 514H1z"/></g><g transform="matrix(-1 0 0 1 12 0)"><use fill="#F2F2F2" xlink:href="#c"/><path stroke="#979797" stroke-width="2" d="M1 357v124h8.08c1.06 0 1.92-.86 1.92-1.914V358.914A1.917 1.917 0 0 0 9.08 357H1z"/></g><g transform="matrix(-1 0 0 1 12 0)"><use fill="#F2F2F2" xlink:href="#d"/><path stroke="#979797" stroke-width="2" d="M1 236v60h8.08a1.92 1.92 0 0 0 1.92-1.907v-56.186A1.914 1.914 0 0 0 9.08 236H1z"/></g><use fill="#F2F2F2" xlink:href="#e"/><path stroke="#979797" stroke-width="2" d="M7 127.996v1468.008C7 1666.146 63.858 1723 134.001 1723H728c70.146 0 127-56.855 127-126.996V127.996C855 57.854 798.142 1 727.999 1H134C63.854 1 7 57.855 7 127.996zm47.999 2.207c0-44.735 36.27-81.058 81-81.123l2.198-.003a157816.38 157816.38 0 0 1 31.423-.046C184.231 49.01 194.912 49 200 49c16.749 0 24 6.136 24 25.195 0 19.429 20.557 35.995 45 35.995h320c30.084 0 48-14.162 48-39.995C637 55.445 644.974 49 658 49c4.023 0 15.931.014 33.267.037l4.491.006a280151.978 280151.978 0 0 1 27.731.039l2.511.003c44.74.063 81 36.373 81 81.118v1463.792c0 44.734-36.271 81.005-80.997 81.005H135.995C91.258 1675 55 1638.74 55 1593.995V130.203z"/><path d="M56 138h750v1468H56z"/><ellipse fill="#979797" cx="522" cy="69" rx="14" ry="14"/><rect fill="#979797" x="379" y="62" width="104" height="14" rx="7"/></g></svg>