<svg width="375" height="44" xmlns="http://www.w3.org/2000/svg"><g fill="none" fill-rule="evenodd"><g transform="translate(336 17)"><rect stroke="#000" opacity=".35" x=".5" y=".833" width="21" height="10.333" rx="2.667"/><path d="M23 4v4a2.17 2.17 0 0 0 0-4" fill="#000" fill-rule="nonzero" opacity=".4"/><rect fill="#000" fill-rule="nonzero" x="2" y="2.333" width="18" height="7.333" rx="1.333"/></g><path d="M323.5 19.284c2.177 0 4.27.855 5.847 2.386a.298.298 0 0 0 .426-.003l1.135-1.17a.326.326 0 0 0-.002-.458 10.542 10.542 0 0 0-14.811 0 .326.326 0 0 0-.003.458l1.135 1.17c.117.12.307.122.426.003a8.393 8.393 0 0 1 5.847-2.386zm0 3.808c1.196 0 2.35.454 3.236 1.274a.3.3 0 0 0 .425-.006l1.134-1.17a.327.327 0 0 0-.004-.46 6.924 6.924 0 0 0-9.579 0 .326.326 0 0 0-.004.46l1.134 1.17a.3.3 0 0 0 .425.006 4.763 4.763 0 0 1 3.233-1.274zm2.18 2.793a.318.318 0 0 0-.01-.458 3.307 3.307 0 0 0-4.34 0 .318.318 0 0 0-.01.458l1.963 2.022a.303.303 0 0 0 .435 0l1.962-2.022zM295 24.875h1c.552 0 1 .462 1 1.031v2.063c0 .57-.448 1.031-1 1.031h-1c-.552 0-1-.462-1-1.031v-2.063c0-.57.448-1.031 1-1.031zm4.667-2.063h1c.552 0 1 .462 1 1.032v4.125c0 .57-.448 1.031-1 1.031h-1c-.553 0-1-.462-1-1.031v-4.125c0-.57.447-1.032 1-1.032zm4.666-2.406h1c.553 0 1 .462 1 1.032v6.53c0 .57-.447 1.032-1 1.032h-1c-.552 0-1-.462-1-1.031v-6.532c0-.569.448-1.03 1-1.03zM309 18h1c.552 0 1 .462 1 1.031v8.938c0 .57-.448 1.031-1 1.031h-1c-.552 0-1-.462-1-1.031V19.03c0-.57.448-1.031 1-1.031z" fill="#000" fill-rule="nonzero"/><text transform="translate(21 9)" font-size="14" font-family=".AppleSystemUIFont" letter-spacing="-.28" fill="#000"><tspan x="13.413" y="21">9:4</tspan> <tspan x="34.209" y="21">1</tspan></text></g></svg>