<svg width="768" height="1618" xmlns="http://www.w3.org/2000/svg" xmlns:xlink="http://www.w3.org/1999/xlink"><defs><rect id="a" width="12" height="117.283" rx="3.75"/><rect id="b" y="137.162" width="12" height="117.283" rx="3.75"/><rect id="c" x="756" y="254" width="12" height="117" rx="3.75"/><path d="M7 90.003C7 40.296 47.288 0 96.99 0h574.02C720.71 0 761 40.298 761 90.003v1437.994c0 49.707-40.288 90.003-89.99 90.003H96.99C47.29 1618 7 1577.702 7 1527.997V90.003zm17 21.99v1400.014C24 1534.085 41.906 1552 63.994 1552h640.012c22.084 0 39.994-17.906 39.994-39.993V111.993C744 89.915 726.094 72 704.006 72H63.994C41.91 72 24 89.906 24 111.993z" id="d"/><radialGradient cx="54.991%" cy="42.75%" fx="54.991%" fy="42.75%" r="55.733%" gradientTransform="matrix(-.62143 .78044 -.7757 -.62523 1.224 .266)" id="f"><stop stop-color="#ABBDFF" offset="0%"/><stop stop-color="#6587FF" offset="12.873%"/><stop stop-color="#7120B5" stop-opacity=".065" offset="100%"/></radialGradient><filter x="-281.6%" y="-283.4%" width="663.3%" height="666.7%" filterUnits="objectBoundingBox" id="e"><feGaussianBlur stdDeviation="4" in="SourceGraphic"/></filter><radialGradient cx="54.991%" cy="42.75%" fx="54.991%" fy="42.75%" r="55.733%" gradientTransform="matrix(-.61754 .77555 -.75868 -.63128 1.214 .27)" id="h"><stop stop-color="#ABBDFF" offset="0%"/><stop stop-color="#6587FF" offset="12.873%"/><stop stop-color="#7120B5" stop-opacity=".065" offset="100%"/></radialGradient><filter x="-271.9%" y="-278%" width="643.8%" height="655.9%" filterUnits="objectBoundingBox" id="g"><feGaussianBlur stdDeviation="4" in="SourceGraphic"/></filter></defs><g fill="none" fill-rule="evenodd"><g transform="translate(0 182)"><use fill="#F2F2F2" xlink:href="#a"/><rect stroke="#979797" stroke-width="2" x="1" y="1" width="10" height="115.283" rx="3.75"/></g><g transform="translate(0 182)"><use fill="#F2F2F2" xlink:href="#b"/><rect stroke="#979797" stroke-width="2" x="1" y="138.162" width="10" height="115.283" rx="3.75"/></g><g transform="translate(0 182)"><use fill="#F2F2F2" xlink:href="#c"/><rect stroke="#979797" stroke-width="2" x="757" y="255" width="10" height="115" rx="3.75"/></g><use fill="#F2F2F2" xlink:href="#d"/><path stroke="#979797" stroke-width="2" d="M8 90.003v1437.994C8 1577.15 47.844 1617 96.99 1617h574.02c49.149 0 88.99-39.847 88.99-89.003V90.003C760 40.85 720.156 1 671.01 1H96.99C47.842 1 8 40.847 8 90.003zm15 21.99C23 89.355 41.356 71 63.994 71h640.012C726.643 71 745 89.36 745 111.993v1400.014c0 22.638-18.356 40.993-40.994 40.993H63.994C41.357 1553 23 1534.64 23 1512.007V111.993z"/><g transform="translate(161 26)"><rect fill="#979797" x="176" y="3.957" width="94" height="16" rx="8"/><ellipse filter="url(#e)" cx="3.043" cy="2.452" rx="2.13" ry="2.117" opacity=".2" transform="translate(0 12.97)" fill="url(#f)"/><ellipse cx="12" cy="11.565" rx="11.304" ry="11.058" opacity=".5" transform="translate(355)" fill="#979797"/><ellipse filter="url(#g)" cx="2.402" cy="2.81" rx="2.207" ry="2.159" opacity=".5" transform="translate(415 12.97)" fill="url(#h)"/></g></g></svg>